<svg xmlns="http://www.w3.org/2000/svg" width="400" height="200" viewBox="0 0 400 200">
  <defs>
    <linearGradient id="sky" x1="0" y1="0" x2="0" y2="1">
      <stop offset="0%" stop-color="#87CEEB"/>
      <stop offset="60%" stop-color="#4A8FE7"/>
      <stop offset="100%" stop-color="#1E40AF"/>
    </linearGradient>
    <linearGradient id="water" x1="0" y1="0" x2="0" y2="1">
      <stop offset="0%" stop-color="#2563EB"/>
      <stop offset="100%" stop-color="#1E3A8A"/>
    </linearGradient>
  </defs>
  <rect width="400" height="200" fill="url(#sky)"/>
  <ellipse cx="350" cy="50" rx="30" ry="30" fill="#FCD34D" opacity="0.8"/>
  <path d="M0 130 Q100 110 200 125 Q300 140 400 120 L400 200 L0 200 Z" fill="url(#water)" opacity="0.7"/>
  <path d="M0 140 Q80 125 160 135 Q240 145 320 130 Q360 125 400 135 L400 200 L0 200 Z" fill="url(#water)" opacity="0.5"/>
  <path d="M0 155 Q100 145 200 150 Q300 155 400 148 L400 200 L0 200 Z" fill="#1E3A8A" opacity="0.4"/>
</svg>
